<svg xmlns="http://www.w3.org/2000/svg" viewBox="0 0 35 35" fill="none">
<path d="M34.194 8.89216C34.1934 8.46029 34.1806 7.81315 34.0766 7.17638C33.581 4.14492 31.8891 1.99468 29.0475 0.784044C28.1206 0.389143 27.0852 0.204337 25.7893 0.20304C20.0284 0.195907 14.3934 0.198501 9.64093 0.201743C8.98878 0.202392 8.2962 0.218603 7.58179 0.250377C6.0599 0.317814 4.65354 0.820357 3.40316 1.74374C1.15402 3.4044 0.0114821 5.71868 0.00634707 8.62305C-0.00520673 14.9428 0.00121204 21.2839 0.0082727 26.1024C0.00891458 26.7476 0.0493529 27.3085 0.130871 27.8176C0.563497 30.5131 2.01607 32.5408 4.4475 33.8448C5.56437 34.444 6.81474 34.7358 8.26796 34.7384C9.51063 34.7403 10.7649 34.741 12.0101 34.741C12.8599 34.741 13.7053 34.741 14.5391 34.7403C15.3857 34.7403 16.233 34.7397 17.0797 34.7397H19.176C21.1145 34.7403 23.1184 34.7403 25.0896 34.7371C25.5415 34.7364 26.1378 34.7299 26.738 34.6904C28.4813 34.5737 30.0443 33.9175 31.3833 32.7392C33.2505 31.0961 34.1972 28.9212 34.1985 26.2736V25.7374C34.2005 20.2159 34.2017 14.507 34.194 8.89216ZM31.2639 26.38C31.2607 29.0956 29.5956 31.1758 27.023 31.679C26.7085 31.7406 26.3599 31.7711 25.9575 31.7718C23.6974 31.7776 21.3995 31.777 19.1773 31.7763L17.0848 31.7757C16.1785 31.7757 15.2721 31.7757 14.3658 31.7763C12.3041 31.777 10.2417 31.7776 8.18002 31.775C5.59389 31.7724 3.5264 30.0501 3.03601 27.4895C2.97567 27.175 2.94486 26.8345 2.94486 26.4779C2.93844 19.5448 2.9378 13.8281 2.9423 8.48623C2.94358 7.17768 3.3531 5.99038 4.12592 5.05208C4.89874 4.11444 5.9803 3.49258 7.25379 3.25396C7.5651 3.1956 7.91492 3.16707 8.32252 3.16642L10.1589 3.16447C12.9107 3.16188 15.7118 3.15928 18.5226 3.15928C20.9746 3.15928 23.4349 3.16123 25.8753 3.16771C28.1597 3.17355 29.8158 4.20911 30.7979 6.24651C31.1105 6.8956 31.2632 7.65947 31.2639 8.5822C31.2677 14.0829 31.2716 20.3183 31.2639 26.38Z" fill="black"/>
<path d="M17.6519 11.1075C15.8061 11.1113 14.0749 11.8411 12.7773 13.1625C11.4934 14.4696 10.7909 16.1992 10.7999 18.0327C10.8089 19.8796 11.5261 21.6121 12.8199 22.9115C14.1128 24.2094 15.8312 24.9244 17.6585 24.9244C19.457 24.9239 21.1575 24.2214 22.4442 22.9459C23.7541 21.6475 24.477 19.8992 24.4798 18.0231C24.4826 16.1657 23.773 14.4251 22.4816 13.1223C21.1878 11.8167 19.4721 11.1012 17.6519 11.1075ZM22.3253 18.0313C22.3173 19.2947 21.8254 20.4793 20.9411 21.3666C20.0596 22.2505 18.8913 22.7368 17.6491 22.7368C17.6443 22.7368 17.6391 22.7368 17.6344 22.7368C16.378 22.7329 15.2021 22.2386 14.3234 21.345C13.4448 20.4515 12.9629 19.2593 12.9667 17.9891C12.9742 15.4019 15.0719 13.2951 17.6424 13.2937H17.6453C18.8993 13.2937 20.0795 13.7914 20.9681 14.6955C21.8515 15.5928 22.3334 16.7778 22.3253 18.0313Z" fill="black" stroke="black" stroke-width="0.5"/>
<path d="M25.6799 6.96575C25.2407 6.94743 24.8168 7.11024 24.4865 7.42421C24.1451 7.74818 23.9517 8.18749 23.9418 8.66136C23.9319 9.13315 24.0985 9.57371 24.4107 9.90101C24.7207 10.2262 25.1549 10.4103 25.6328 10.4182C25.6432 10.4182 25.653 10.4186 25.6634 10.4186C26.5953 10.4186 27.3222 9.69364 27.3601 8.71966C27.3964 7.79232 26.6427 7.00572 25.6799 6.96575Z" fill="black"/>
</svg>