<?xml version="1.0" encoding="UTF-8"?>
<!-- Svg Vector Icons : http://www.onlinewebfonts.com/icon -->
<!DOCTYPE svg PUBLIC "-//W3C//DTD SVG 1.1//EN" "http://www.w3.org/Graphics/SVG/1.1/DTD/svg11.dtd">
<svg version="1.1" width="20" height="20" xmlns="http://www.w3.org/2000/svg" xmlns:xlink="http://www.w3.org/1999/xlink" x="0px" y="0px" viewBox="0 0 1000 1000" enable-background="new 0 0 1000 1000" xml:space="preserve">
<metadata> Svg Vector Icons : http://www.onlinewebfonts.com/icon </metadata>
<g><path d="M500,10C230.8,10,10,230.8,10,500s220.8,490,490,490s490-220.8,490-490S769.2,10,500,10z M500,938.2c-41.4,0-79.4-6.9-117.3-17.3c13.8-24.2,31.1-55.2,38-82.8c6.9-20.7,31.1-120.8,31.1-120.8c13.8,27.6,58.7,55.2,107,55.2c141.5,0,234.6-127.7,234.6-300.2c0-131.1-110.4-251.9-276.1-251.9c-207,0-314,148.4-314,272.6c0,75.9,27.6,141.5,89.7,165.6c10.4,3.5,20.7,0,20.7-10.4c3.5-6.9,6.9-27.6,10.4-34.5c3.5-10.4,3.5-13.8-3.5-24.2C303.3,569,293,541.4,293,503.5C293,393,375.8,293,506.9,293c117.3,0,182.9,72.5,182.9,169.1c0,127.7-55.2,231.2-138,231.2c-44.9,0-79.4-38-69-82.8c13.8-55.2,38-113.9,38-155.3c0-34.5-20.7-65.6-58.7-65.6c-48.3,0-82.8,48.3-82.8,113.9c0,41.4,13.8,69,13.8,69s-51.8,203.6-58.7,238.1c-6.9,27.6-6.9,62.1-6.9,89.7C172.2,831.3,65.2,679.4,65.2,500C61.8,258.5,258.5,61.8,500,61.8S938.2,258.5,938.2,500S741.5,938.2,500,938.2z"/></g>
</svg>